<svg xmlns="http://www.w3.org/2000/svg" viewBox="0 0 316.55 76.30" role="img" aria-label="sunter">
  <!--
    Sunter Wordmark — Near-black — light mode
    Font    : Syne SemiBold (weight 600)
    Case    : lowercase
    Tracking: -0.02em
    Note    : paths — não requer font instalada
  -->
  <path fill="#1A1714" d="M6.053 52.800L6.053 52.800L16.353 52.800Q17.153 56.600 20.453 58.950Q23.753 61.300 29.353 61.300L29.353 61.300Q32.953 61.300 35.003 60.500Q37.053 59.700 37.903 58.300Q38.753 56.900 38.753 55.100L38.753 55.100Q38.753 52.900 37.503 51.700Q36.253 50.500 33.853 49.700Q31.453 48.900 27.853 48.300L27.853 48.300Q24.153 47.400 20.553 46.300Q16.953 45.200 14.053 43.550Q11.153 41.900 9.503 39.350Q7.853 36.800 7.853 33.100L7.853 33.100Q7.853 29.700 9.403 26.950Q10.953 24.200 13.753 22.300Q16.553 20.400 20.353 19.350Q24.153 18.300 28.653 18.300L28.653 18.300Q35.153 18.300 39.503 20.400Q43.853 22.500 46.103 26.300Q48.353 30.100 48.353 35L48.353 35L38.553 35Q37.753 31 35.453 29.200Q33.153 27.400 28.553 27.400L28.553 27.400Q23.953 27.400 21.553 29Q19.153 30.600 19.153 33.400L19.153 33.400Q19.153 35.500 20.703 36.750Q22.253 38 25.153 38.900Q28.053 39.800 31.953 40.700L31.953 40.700Q35.553 41.700 38.753 42.750Q41.953 43.800 44.503 45.350Q47.053 46.900 48.553 49.400Q50.053 51.900 50.053 55.600L50.053 55.600Q50.053 60.200 47.603 63.500Q45.153 66.800 40.553 68.550Q35.953 70.300 29.453 70.300L29.453 70.300Q23.753 70.300 19.603 69Q15.453 67.700 12.703 65.600Q9.953 63.500 8.453 61.100Q6.953 58.700 6.403 56.500Q5.853 54.300 6.053 52.800ZM110.053 19.400L110.053 69.200L98.953 69.200L98.953 19.400L110.053 19.400ZM99.553 45.500L99.553 45.500L99.653 48.700Q99.453 50 98.803 52.600Q98.153 55.200 96.703 58.250Q95.253 61.300 92.903 64.050Q90.553 66.800 87.053 68.550Q83.553 70.300 78.553 70.300L78.553 70.300Q74.953 70.300 71.303 69.350Q67.653 68.400 64.703 66.200Q61.753 64 59.953 60.200Q58.153 56.400 58.153 50.600L58.153 50.600L58.153 19.400L69.253 19.400L69.253 48.500Q69.253 53.200 70.803 55.850Q72.353 58.500 75.153 59.600Q77.953 60.700 81.653 60.700L81.653 60.700Q86.953 60.700 90.653 58.300Q94.353 55.900 96.603 52.350Q98.853 48.800 99.553 45.500ZM120.353 69.200L120.353 19.400L131.453 19.400L131.453 69.200L120.353 69.200ZM152.453 18.300L152.453 18.300Q156.753 18.300 160.403 19.500Q164.053 20.700 166.703 23.150Q169.353 25.600 170.803 29.200Q172.253 32.800 172.253 37.700L172.253 37.700L172.253 69.200L161.153 69.200L161.153 39.900Q161.153 33.800 158.203 30.850Q155.253 27.900 148.953 27.900L148.953 27.900Q144.153 27.900 140.203 29.950Q136.253 32 133.753 35.250Q131.253 38.500 130.853 42.400L130.853 42.400L130.753 37Q131.253 33.300 132.953 29.950Q134.653 26.600 137.453 23.950Q140.253 21.300 144.053 19.800Q147.853 18.300 152.453 18.300ZM179.053 28.500L179.053 19.400L214.253 19.400L214.253 28.500L179.053 28.500ZM191.053 69.200L191.053 6L202.253 6L202.253 69.200L191.053 69.200ZM262.553 52.800L262.553 52.800L273.253 52.800Q272.453 57.900 269.303 61.850Q266.153 65.800 260.753 68.050Q255.353 70.300 247.853 70.300L247.853 70.300Q239.353 70.300 232.653 67.150Q225.953 64 222.153 58.200Q218.353 52.400 218.353 44.400L218.353 44.400Q218.353 36.500 222.053 30.600Q225.753 24.700 232.303 21.500Q238.853 18.300 247.453 18.300L247.453 18.300Q256.353 18.300 262.303 21.450Q268.253 24.600 271.153 30.850Q274.053 37.100 273.553 46.600L273.553 46.600L229.653 46.600Q230.153 50.800 232.403 54.150Q234.653 57.500 238.553 59.350Q242.453 61.200 247.653 61.200L247.653 61.200Q253.453 61.200 257.403 58.900Q261.353 56.600 262.553 52.800ZM247.153 27.300L247.153 27.300Q240.353 27.300 235.953 30.650Q231.553 34 230.253 39.200L230.253 39.200L262.353 39.200Q261.953 33.600 257.853 30.450Q253.753 27.300 247.153 27.300ZM281.453 69.200L281.453 19.400L292.553 19.400L292.553 69.200L281.453 69.200ZM310.553 18.300L310.553 28.900Q305.153 28.900 301.303 31.200Q297.453 33.500 295.153 36.800Q292.853 40.100 291.953 43.200L291.953 43.200L291.853 37.600Q291.953 36.500 292.553 34.250Q293.153 32 294.403 29.300Q295.653 26.600 297.803 24.050Q299.953 21.500 303.103 19.900Q306.253 18.300 310.553 18.300L310.553 18.300Z"/>
</svg>